<?xml version="1.0" standalone="no"?>
<!DOCTYPE svg PUBLIC "-//W3C//DTD SVG 20010904//EN"
 "http://www.w3.org/TR/2001/REC-SVG-20010904/DTD/svg10.dtd">
<svg version="1.0" xmlns="http://www.w3.org/2000/svg"
 width="500.000000pt" height="500.000000pt" viewBox="0 0 500.000000 500.000000"
 preserveAspectRatio="xMidYMid meet">

<g transform="translate(0.000000,500.000000) scale(0.100000,-0.100000)"
fill="#47657f" stroke="none">
<path d="M422 3368 c-65 -65 141 -394 308 -491 82 -47 155 -59 420 -67 264 -9
317 -18 425 -70 l60 -28 -72 -1 c-40 -1 -152 -13 -250 -27 -352 -51 -542 -16
-728 132 -81 64 -108 67 -113 15 -9 -94 156 -296 305 -374 200 -104 285 -108
623 -27 264 62 388 73 451 39 20 -10 14 -14 -62 -39 -46 -15 -158 -57 -247
-94 -90 -37 -198 -76 -239 -87 -134 -34 -282 -22 -402 32 -79 36 -109 37 -117
5 -9 -36 17 -76 97 -150 141 -130 341 -194 484 -155 22 6 114 46 205 89 292
138 400 166 538 136 99 -22 129 -21 142 5 13 22 14 20 -81 161 -31 45 -89 144
-129 218 -137 255 -219 352 -352 415 -127 60 -205 74 -473 85 -427 18 -484 36
-672 213 -83 78 -99 87 -121 65z m283 -253 c111 -54 179 -64 470 -75 267 -9
335 -19 455 -66 119 -46 210 -139 308 -312 27 -48 77 -137 111 -198 34 -61 80
-134 102 -162 21 -29 39 -54 39 -56 0 -1 -30 3 -67 10 -171 33 -285 5 -602
-150 -74 -36 -160 -71 -190 -77 -133 -28 -299 35 -438 165 -44 41 -41 49 10
27 114 -49 280 -58 417 -22 41 10 172 59 290 107 222 91 215 89 373 94 21 0 2
42 -32 69 -78 62 -122 74 -240 68 -104 -6 -172 -18 -401 -73 -92 -23 -139 -28
-235 -28 -107 -1 -127 2 -183 26 -92 38 -166 86 -232 149 -53 50 -120 141
-120 161 0 5 24 -9 53 -31 66 -51 137 -82 252 -111 117 -30 280 -31 455 -2
243 41 356 38 437 -8 30 -18 34 -18 49 -2 16 15 13 20 -44 73 -71 64 -148 108
-247 139 -59 18 -108 23 -314 31 -261 9 -320 16 -391 47 -97 42 -197 146 -274
286 -62 112 -57 118 33 33 57 -53 106 -88 156 -112z"/>
<path d="M4467 3312 c-199 -186 -253 -204 -672 -221 -279 -11 -354 -25 -483
-86 -134 -63 -217 -161 -352 -415 -40 -74 -97 -173 -129 -218 -94 -140 -94
-139 -81 -161 13 -26 43 -27 142 -5 138 30 244 3 539 -137 196 -92 236 -104
332 -96 134 11 265 74 375 180 63 61 86 100 78 133 -8 32 -38 31 -117 -5 -120
-54 -268 -66 -402 -32 -41 11 -149 50 -239 87 -89 37 -201 79 -247 94 -76 25
-82 29 -62 39 63 34 187 23 451 -39 329 -79 420 -76 600 15 169 85 338 284
328 386 -5 52 -33 49 -109 -12 -129 -104 -290 -159 -463 -159 -56 0 -177 11
-271 25 -93 13 -204 25 -245 26 l-75 1 60 28 c108 52 161 61 425 70 274 9 339
20 431 75 163 99 360 420 297 483 -21 21 -38 13 -111 -56z m28 -96 c-77 -150
-182 -264 -285 -308 -71 -31 -130 -38 -391 -47 -221 -8 -252 -11 -324 -35
-100 -32 -190 -85 -252 -148 -45 -46 -47 -50 -30 -63 16 -11 23 -11 50 5 81
46 194 49 437 8 175 -28 337 -28 455 2 106 27 193 65 258 115 26 20 47 32 47
27 0 -17 -60 -102 -99 -141 -66 -66 -155 -126 -238 -162 -74 -32 -84 -34 -198
-33 -96 0 -143 5 -235 28 -229 55 -297 67 -401 73 -99 5 -110 4 -160 -19 -67
-31 -119 -74 -119 -99 0 -10 3 -19 8 -19 157 -5 150 -4 371 -94 267 -109 331
-126 458 -128 101 -2 176 11 251 43 23 10 42 14 42 10 0 -14 -77 -79 -142
-122 -113 -72 -235 -102 -333 -79 -27 6 -124 46 -215 89 -216 101 -231 108
-324 131 -91 23 -154 25 -248 6 -68 -13 -81 -9 -53 14 23 19 105 152 185 300
169 312 241 379 480 442 59 15 129 21 330 28 165 6 281 14 330 25 114 24 206
74 297 159 43 41 80 72 82 70 2 -2 -13 -37 -34 -78z"/>
<path d="M837 3288 c-8 -27 4 -41 29 -36 19 3 33 48 16 48 -6 0 -17 3 -25 6
-9 3 -17 -3 -20 -18z"/>
<path d="M4128 3303 c-11 -3 -18 -14 -18 -29 0 -18 5 -24 23 -24 13 0 26 2 29
5 7 7 -3 55 -11 54 -3 -1 -14 -3 -23 -6z"/>
<path d="M1056 3244 c-11 -28 -7 -34 24 -34 25 0 30 4 30 25 0 20 -5 25 -24
25 -13 0 -27 -7 -30 -16z"/>
<path d="M1280 3230 c0 -25 4 -30 25 -30 21 0 25 5 25 30 0 25 -4 30 -25 30
-21 0 -25 -5 -25 -30z"/>
<path d="M3664 3246 c-10 -26 4 -48 28 -44 17 2 23 10 23 28 0 18 -6 26 -23
28 -13 2 -25 -3 -28 -12z"/>
<path d="M3890 3231 c0 -25 3 -28 25 -23 18 3 25 11 25 28 0 19 -5 24 -25 24
-21 0 -25 -5 -25 -29z"/>
<path d="M1505 3220 c-8 -25 1 -40 25 -40 23 0 38 39 19 51 -22 14 -37 10 -44
-11z"/>
<path d="M3453 3233 c-7 -2 -13 -16 -13 -29 0 -18 5 -24 23 -24 31 0 35 5 29
35 -4 24 -14 29 -39 18z"/>
<path d="M1722 3155 c-10 -21 -8 -26 10 -36 18 -9 24 -8 34 6 15 20 11 30 -15
45 -15 7 -20 4 -29 -15z"/>
<path d="M3236 3163 c-28 -15 -28 -15 -9 -34 32 -33 70 -1 45 38 -5 8 -15 7
-36 -4z"/>
<path d="M2404 2743 c-214 -286 -216 -290 -202 -316 38 -68 282 -387 296 -387
19 1 72 72 72 95 0 27 -32 31 -48 7 -8 -12 -18 -22 -23 -22 -6 0 -231 300
-241 322 -4 8 231 328 241 328 7 0 241 -315 241 -324 0 -3 -23 -37 -51 -76
-51 -69 -59 -105 -22 -98 21 4 132 146 132 171 1 24 -276 401 -298 405 -11 2
-43 -33 -97 -105z"/>
<path d="M2442 2369 c-29 -38 -52 -73 -52 -79 0 -25 28 -5 64 45 22 30 42 55
45 54 3 0 53 -65 111 -145 57 -79 108 -144 112 -144 26 0 6 38 -94 174 -62 86
-118 157 -124 160 -6 2 -34 -27 -62 -65z"/>
<path d="M2466 2293 c-18 -22 -25 -40 -21 -51 6 -15 10 -13 30 11 l24 27 76
-102 c41 -57 75 -107 75 -113 -1 -5 -35 -56 -77 -113 l-75 -103 -72 98 c-40
54 -75 103 -79 109 -3 6 5 26 18 44 18 24 22 37 14 44 -7 8 -18 2 -35 -19 -48
-57 -49 -52 49 -188 51 -70 97 -127 103 -127 16 0 188 231 188 253 1 18 -161
252 -180 260 -6 3 -23 -11 -38 -30z"/>
<path d="M2286 2162 c-28 -41 -33 -62 -13 -62 13 0 67 71 67 89 0 24 -29 9
-54 -27z"/>
<path d="M1795 1977 c-16 -8 -65 -40 -109 -71 -154 -112 -228 -136 -332 -113
-49 12 -72 13 -81 5 -37 -30 11 -89 114 -140 56 -27 77 -32 137 -32 80 0 89 4
201 85 151 109 243 137 348 108 126 -35 83 84 -52 144 -58 26 -183 33 -226 14z
m204 -66 c22 -12 41 -22 41 -24 0 -1 -28 -3 -61 -3 -50 -2 -77 -10 -143 -42
-44 -22 -108 -62 -141 -87 -33 -26 -73 -54 -90 -62 -44 -23 -121 -20 -185 8
l-55 24 69 7 c83 8 175 51 286 133 41 30 89 59 105 65 44 14 126 5 174 -19z"/>
<path d="M2999 1972 c-68 -28 -138 -79 -145 -107 -10 -42 2 -58 39 -51 17 4
59 9 92 12 72 7 146 -17 228 -74 28 -19 80 -55 114 -78 40 -27 79 -45 107 -49
87 -13 218 35 277 102 56 64 31 87 -72 66 -106 -22 -163 -1 -356 132 -86 59
-89 60 -163 63 -54 1 -88 -3 -121 -16z m168 -41 c18 -5 70 -37 115 -70 113
-82 202 -122 285 -129 l66 -5 -35 -18 c-103 -53 -179 -43 -283 35 -131 100
-259 155 -333 142 -50 -8 -28 12 40 35 60 21 98 23 145 10z"/>
</g>
</svg>